<svg width="240" height="237" viewBox="0 0 240 237" fill="none" xmlns="http://www.w3.org/2000/svg">
<g clip-path="url(#clip0_1_10)">
<g filter="url(#filter0_i_1_10)">
<rect width="240" height="237" rx="60" fill="url(#paint0_linear_1_10)"/>
</g>
<rect x="1" y="1" width="238" height="235" rx="59" stroke="url(#paint1_radial_1_10)" stroke-width="2"/>
<path d="M118.695 232.458C119.319 231.733 120.226 230.868 120.94 230.234C121.163 230.035 121.135 230.218 121.293 230.084C121.602 229.822 121.824 229.515 122.135 229.262C122.238 229.178 122.246 229.413 122.351 229.323C122.929 228.827 123.395 228.281 123.952 227.751C126.696 225.145 129.314 222.507 132.019 219.799C132.91 218.906 134.082 217.904 134.936 216.918C135.036 216.802 134.867 216.766 134.878 216.736C135.058 216.28 135.168 216.595 135.402 216.408C136.329 215.667 137.245 214.733 137.988 213.876C138.303 213.512 137.758 213.657 138.212 213.421C138.243 213.405 138.272 213.601 138.375 213.517C138.61 213.327 138.983 212.898 139.153 212.739C139.48 212.433 139.53 212.378 139.825 212.074C140.228 211.659 140.761 211.216 141.165 210.744C141.251 210.643 141.014 210.658 141.14 210.487C141.267 210.315 141.664 209.921 141.822 209.811C141.98 209.701 142.015 209.846 142.059 209.842C142.426 209.813 142.63 209.112 142.681 209.046C143.63 207.852 144.67 207.045 145.657 206.016C146.405 205.235 147.16 204.356 147.879 203.619C148.736 202.742 149.519 202.052 150.333 201.181C150.419 201.09 150.181 201.065 150.286 200.953C151.4 199.76 152.536 198.605 153.753 197.521C153.875 197.412 153.849 197.678 153.978 197.577C154.767 196.952 156.095 196.04 155.984 195.114C156.472 194.646 157.06 194.074 157.583 193.739C157.92 193.523 157.789 193.921 158.064 193.522C158.127 193.433 157.915 193.424 158.018 193.298C158.447 192.766 159 192.265 159.407 191.722C159.49 191.611 159.362 191.54 159.37 191.495C159.447 191.116 160.07 190.96 160.17 190.892C160.928 190.369 161.331 189.843 161.916 189.24C162.052 189.1 161.755 189.135 161.881 188.995C162.535 188.274 163.245 187.558 163.966 186.929C164.126 186.789 164.108 187.042 164.191 186.981C164.554 186.71 164.402 186.427 164.746 186.164C164.819 186.108 164.884 186.241 164.906 186.239C165.257 186.219 165.168 185.823 165.208 185.77C165.715 185.094 166.341 184.952 166.866 184.332C166.929 184.258 166.651 184.294 166.834 184.092C168.056 182.749 169.42 181.397 170.766 180.197C170.975 180.01 170.932 180.245 170.956 180.244C171.337 180.213 171.22 179.844 171.274 179.769C171.705 179.187 172.376 178.9 172.421 178.267C174.63 176.167 176.563 173.823 178.915 171.896C178.945 171.872 179.018 172.037 179.077 171.987C179.783 171.387 179.472 171.335 179.665 170.674C179.714 170.508 180.315 170.436 180.364 170.426C180.543 170.389 180.615 170.675 180.664 170.652C181.067 170.46 180.425 169.939 180.815 169.532C180.828 169.52 180.887 169.678 180.93 169.655C181.066 169.582 181.123 169.435 181.261 169.367C181.576 169.213 181.946 169.406 182.125 168.882C182.148 168.815 181.743 168.562 182.107 168.214C182.252 168.076 182.861 167.43 183.055 167.271C183.249 167.113 183.24 167.34 183.257 167.332C183.864 166.987 183.748 167.227 184.193 167.189C184.637 167.151 184.067 166.733 184.105 166.58C184.144 166.427 184.602 166.187 184.727 166.139C184.851 166.092 184.816 166.267 184.914 166.212C185.559 165.845 184.879 165.746 184.961 165.5C185.153 164.919 185.826 164.968 186.212 164.639C186.317 164.55 186.154 164.548 186.231 164.453C186.534 164.075 186.852 163.978 187.125 163.479C187.169 163.398 187.251 162.861 187.615 162.813C187.667 162.806 187.681 162.979 187.844 162.851C188.088 162.66 188.491 162.28 188.689 162.012C188.834 161.814 188.487 161.868 188.747 161.692C188.863 161.614 188.778 161.883 188.988 161.729C189.197 161.577 189.644 161.103 189.813 160.921C189.981 160.74 189.77 160.725 189.776 160.703C189.815 160.573 190.087 160.176 190.116 160.146C191.567 158.605 193.116 157.385 194.477 155.835C194.584 155.714 194.386 155.673 194.402 155.654C194.733 155.204 194.759 155.834 195.136 155.66C194.847 155.46 195.051 155.339 195.293 155.031C195.41 154.883 195.242 154.864 195.244 154.842C195.29 154.5 195.614 154.542 195.688 154.543C195.959 154.547 195.929 154.24 196.111 154.241C196.293 154.241 196.234 154.585 196.491 154.313C196.474 154.151 196.048 154.127 196.206 153.886C196.805 152.975 198.373 151.708 198.988 151.105C199.603 150.503 199.778 150.286 200.158 149.956C200.843 149.359 200.439 149.432 200.749 148.95C201.06 148.467 201.297 149.074 201.445 149.104C201.592 149.135 201.557 148.981 201.676 148.958C201.795 148.936 201.71 149.15 201.889 149C202.069 148.851 202.345 148.237 202.306 148.085C202.223 147.765 201.811 147.766 202.311 147.395C202.34 147.374 202.373 147.564 202.478 147.478C203.308 146.786 204.086 145.986 204.905 145.285C205.017 145.189 205.051 145.404 205.118 145.349C205.817 144.781 205.385 144.809 205.49 144.231C205.726 144.609 206.104 144.597 206.575 144.109C206.859 143.816 206.674 143.736 206.761 143.454C206.787 143.369 207.08 143.25 207.052 143.151C206.963 142.826 206.54 142.798 207.118 142.382C207.143 142.364 207.19 142.545 207.271 142.475C207.791 142.024 207.629 141.755 208.115 141.194C208.496 140.755 209.345 140.138 209.824 139.681C210.165 140.027 210.517 139.5 210.451 139.085C210.758 138.785 211.065 138.437 211.386 138.17C211.496 138.078 211.533 138.243 211.556 138.24C211.919 138.206 211.813 137.846 211.868 137.77C212.474 136.96 213.218 136.54 213.708 135.682C213.725 135.652 213.52 135.378 213.875 135.364C213.898 135.364 213.79 135.698 214.111 135.381C214.431 135.064 215.15 134.576 215.471 134.016C215.548 133.881 215.616 133.415 215.983 133.341C216.033 133.332 216.071 133.431 216.151 133.425C216.407 133.406 216.233 133.095 216.598 133.133C216.962 133.171 217.442 132.984 217.735 132.39C217.745 132.372 217.653 132.077 217.794 131.937C218.018 131.713 218.37 131.428 218.598 131.188C218.707 131.073 218.516 131.03 218.533 131.008C219.202 130.174 219.835 129.73 220.672 128.952C220.825 128.809 221.076 128.217 221.487 128.05C221.938 127.866 222.215 128.766 222.781 127.893C223.01 127.541 222.618 126.441 223.521 126.281C224.419 125.152 225.539 124.385 226.398 123.212C226.437 123.16 226.368 122.81 226.477 122.703C226.638 122.544 226.822 122.549 226.94 122.439C227.438 121.979 227.783 121.451 228.248 120.993C228.424 120.819 228.465 120.979 228.676 120.771C228.886 120.564 228.888 120.293 229.23 120.067C229.488 119.896 229.971 119.94 230.28 119.681C230.021 119.412 230.217 119.218 230.485 118.797C230.536 118.715 230.373 118.698 230.392 118.655C230.469 118.478 230.663 118.432 230.729 118.257C230.746 118.215 230.655 118.125 230.663 118.085C230.729 117.745 231.268 117.598 231.361 117.573C231.716 117.477 231.698 117.256 231.92 117.133C232.141 117.01 231.958 117.336 232.187 117.164C232.659 116.806 233.165 116.25 233.58 115.825C233.745 115.655 233.51 115.654 233.531 115.627C233.839 115.243 234.313 115.011 234.256 114.58C235.125 114.942 234.4 114.308 235.011 113.924C235.06 113.894 235.408 114.131 235.305 114.326C235.202 114.521 234.886 114.663 234.751 114.941C234.719 115.006 234.724 115.563 234.703 115.619C234.541 116.054 234.052 115.668 234.012 115.661C233.569 115.591 233.534 116.232 233.466 116.345C233.156 116.861 232.747 117.16 232.476 117.58C232.298 117.854 232.569 118.158 232.386 118.331C231.776 118.908 231.164 118.726 230.972 119.637C230.93 119.832 231.367 120.017 230.695 120.214C230.653 120.226 230.11 120.33 230.076 120.658C230.072 120.699 230.166 120.788 230.144 120.826C229.995 121.084 229.787 121.151 229.604 121.413C229.422 121.674 229.213 121.998 228.933 122.227C228.764 122.365 228.397 122.399 228.283 122.433C227.958 122.526 227.942 122.946 227.667 122.934C227.391 122.923 227.412 122.447 226.984 122.701C227.214 122.946 227.435 123.215 227.659 123.47C226.923 124.22 226.128 124.891 225.409 125.662C225.32 125.758 225.543 125.787 225.451 125.893C225.062 126.339 224.612 126.623 224.224 127.101C223.925 127.471 223.703 127.979 223.394 128.371C222.906 128.323 222.491 128.945 222.095 129.307C221.956 129.434 221.891 129.354 221.774 129.427C221.337 129.704 221.745 129.769 221.688 129.906C221.444 130.491 220.853 129.994 220.384 130.511C220.359 130.538 220.343 131.148 220.318 131.21C220.165 131.611 220.17 131.159 219.977 131.316C219.624 131.604 219.336 131.762 219.056 132.228C218.975 132.364 218.903 132.809 218.552 132.888C218.506 132.899 218.423 132.789 218.396 132.806C217.902 133.13 218.199 133.436 218.076 133.773C217.952 134.11 217.389 134.272 217.256 134.288C216.911 134.331 217.332 134.074 217.326 134.048C217.261 133.747 217.036 134.045 216.825 134.234C216.495 133.974 216.239 134.277 216.607 134.431C216.647 134.448 216.772 134.262 216.825 134.234C216.949 134.697 216.685 135.047 216.077 135.128C215.791 135.166 215.788 134.868 215.37 135.414C215.181 135.661 215.471 135.774 215.338 136.026C215.035 136.6 214.279 137 213.864 137.494C213.713 137.674 213.984 137.618 213.885 137.745C213.623 138.08 213.278 138.268 213.027 138.617C213.005 138.649 213.189 138.695 213.099 138.792C212.418 139.53 211.736 140.088 211.009 140.842C210.657 141.206 210.096 141.923 209.72 142.289C209.068 142.923 208.121 143.565 207.625 144.165C207.301 144.557 207.497 144.591 207.428 144.825C207.295 145.278 206.5 145.543 206.388 145.573C206.384 145.574 206.658 145.233 206.436 145.342C206.215 145.317 206.391 145.569 206.388 145.573C206.314 145.594 205.684 146.196 205.587 146.343C205.535 146.422 205.684 146.493 205.654 146.532C204.949 147.469 204.17 148.338 203.3 149.14C203.283 149.153 203.179 149.009 203.141 149.041C202.612 149.481 202.463 149.944 202.164 150.439C201.865 150.934 201.525 151.227 201.078 151.26C200.811 151.593 200.292 151.942 199.991 152.14C199.69 152.337 199.901 152.608 199.885 152.635C199.373 153.48 198.847 153.747 198.133 154.448C197.793 154.78 197.176 155.495 196.846 155.892C196.586 156.206 196.359 156.328 196.136 156.634C196.106 156.675 196.251 156.743 196.244 156.758C196.085 157.185 195.957 156.784 195.85 156.801C195.46 156.86 195.233 156.911 194.944 157.376C194.877 157.483 195.013 158.112 194.879 158.296C194.705 158.535 194.644 158.323 194.465 158.576C194.449 158.597 194.538 158.675 194.403 158.808C193.779 159.426 193.066 160.07 192.443 160.737C192.358 160.828 192.603 160.842 192.482 160.975C191.913 161.601 191.266 162.264 190.633 162.798C190.476 162.929 190.47 162.747 190.411 162.752C190.055 162.784 190.036 163.297 189.997 163.347C189.071 164.549 188.049 165.168 187.092 166.379C187.04 166.445 186.858 167.163 186.433 167.153C186.404 167.153 185.975 167.136 185.96 167.469C185.959 167.49 186.201 167.477 185.975 167.688C185.749 167.899 185.484 168.335 185.059 168.516C184.924 168.573 184.473 168.581 184.379 169.047C184.374 169.078 184.362 169.925 183.922 169.809C183.849 169.789 183.571 169.47 183.395 169.966C183.362 170.061 183.545 170.006 183.421 170.221C183.23 170.55 182.81 170.825 182.631 171.282C182.601 171.363 182.574 171.804 182.23 171.849C182.176 171.856 182.13 171.7 182.02 171.792C181.495 172.23 181.071 172.808 180.523 173.238C180.33 173.391 180.252 173.143 180.031 173.284C179.811 173.426 179.414 173.755 179.304 174.02C179.195 174.284 179.659 174.325 179.403 174.633C178.293 175.973 176.949 177.066 175.727 178.295C175.546 178.477 175.787 178.413 175.527 178.688C174.567 179.702 172.986 181.526 171.948 182.209C171.117 182.757 171.841 181.759 171.263 182.232C170.984 182.46 171.02 183.032 170.97 183.103C170.483 183.806 169.942 184.1 169.458 184.688C169.358 184.809 169.587 184.817 169.501 184.919C169.207 185.268 168.82 185.562 168.528 185.886C168.397 186.031 168.517 186.096 168.385 186.219C168.071 186.514 167.767 186.75 167.388 186.969C167.354 186.988 167.415 186.69 167.19 186.915C166.827 187.281 166.297 187.659 165.976 188.173C165.881 188.326 166.092 188.538 165.681 188.668C165.595 188.696 165.407 188.374 165.325 188.907C165.311 188.996 165.1 189.819 164.654 189.895C164.537 189.915 164.156 189.889 164.043 190.073C164.028 190.099 164.223 190.127 164.113 190.264C163.723 190.747 163.262 191.202 162.859 191.695C162.752 191.827 163.046 191.76 162.882 191.952C162.431 192.483 161.8 193.08 161.292 193.534C161.105 193.701 161.126 193.481 161.102 193.484C160.724 193.527 160.841 193.88 160.787 193.963C160.451 194.479 160.021 194.705 159.664 195.135C159.565 195.254 159.754 195.284 159.743 195.315C159.621 195.639 159.582 195.274 159.421 195.397C158.967 195.743 158.541 196.205 158.161 196.63C158.022 196.787 158.316 196.743 158.189 196.881C157.442 197.705 156.629 198.527 155.806 199.241C155.651 199.375 155.639 199.186 155.586 199.194C155.222 199.251 155.144 199.773 155.097 199.864C154.881 200.281 154.671 200.321 154.412 200.624C153.151 202.104 151.433 203.777 150.128 205.064C148.428 206.742 147.049 207.987 145.497 209.655C145.399 209.76 145.634 209.784 145.551 209.877C144.468 211.07 143.318 212.164 142.239 213.366C142.15 213.464 142.41 213.449 142.272 213.611C141.989 213.944 141.6 214.336 141.254 214.615C141.086 214.751 141.176 214.438 141.009 214.578C140.619 214.902 140.236 215.283 139.898 215.676C139.754 215.844 140.115 215.729 139.918 215.937C138.581 217.357 137.277 218.761 135.744 220.021C135.639 220.108 135.292 219.94 135.144 220.196C135.202 220.282 135.29 220.364 135.361 220.446C133.438 222.535 131.401 224.475 129.416 226.516C129.332 226.602 129.616 226.587 129.454 226.754C128.521 227.723 127.656 228.703 126.564 229.562C126.456 229.648 126.257 229.361 126.016 229.687C125.974 229.745 125.587 230.213 125.532 230.378C125.526 230.401 125.717 230.431 125.585 230.576C124.817 231.411 123.968 232.244 123.113 232.994C122.975 233.115 122.988 232.857 122.888 232.942C122.184 233.546 121.581 234.36 120.859 234.89C120.375 235.245 120.315 234.884 119.889 234.91C119.829 234.914 119.571 235.174 119.436 235.071C119.098 234.813 118.886 234.365 118.511 234.106C118.43 234.049 118.167 234.475 118.198 234.104C118.201 234.078 118.391 233.768 118.394 233.65C118.396 233.568 118.197 233.529 118.232 233.39C118.267 233.252 118.465 233.253 118.548 233.047C118.63 232.84 118.427 232.771 118.695 232.458ZM198.637 153.032C198.294 153.154 198.692 153.602 198.833 153.249C198.839 153.232 198.654 153.025 198.637 153.032ZM225.807 124.574C225.322 124.698 225.401 125.177 225.755 125.101C226.11 125.026 225.954 124.536 225.807 124.574ZM228.72 121.26C228.226 121.474 228.784 122.118 229.028 121.615C229.043 121.586 228.749 121.247 228.72 121.26ZM120.837 233.803C120.829 233.801 120.641 233.985 120.642 233.995C120.682 234.228 121.058 233.859 120.837 233.803ZM231.597 117.958C231.407 117.99 231.193 118.404 231.43 118.364C231.62 118.331 231.834 117.917 231.597 117.958ZM186.433 164.831C186.423 164.829 186.286 164.959 186.325 164.991C186.451 165.094 186.6 164.873 186.433 164.831ZM236.737 112.585C235.954 113.356 234.987 113.352 235.872 112.543C236.032 112.397 235.71 113.035 235.947 112.879C236.379 112.595 236.293 112.049 236.82 111.84C236.916 111.803 236.783 112.543 236.737 112.588C236.737 112.587 236.737 112.586 236.737 112.585ZM197.989 152.67C197.979 152.669 197.793 152.852 197.794 152.862C197.833 153.095 198.208 152.727 197.989 152.67ZM178.55 172.514C178.528 172.512 178.097 172.938 178.095 172.963C178.1 173.406 178.971 172.546 178.55 172.514ZM209.841 139.683C209.9 139.345 210.12 139.084 210.45 139.086C210.245 139.281 210.046 139.486 209.841 139.683Z" fill="white"/>
<g filter="url(#filter1_d_1_10)">
<path d="M41.0306 116.885C37.2157 112.846 35.4265 107.301 36.1608 101.794C37.2492 93.6308 43.6212 87.1802 51.7705 85.9918L52.2612 85.9202C58.3715 85.0292 64.5247 87.1449 68.8538 91.5481C78.9036 101.77 96.7972 119.5 100 119.5C103.665 119.5 154.09 64.1174 172.68 43.5605C176.976 38.8107 183.339 36.1187 189.557 37.6518C202.656 40.8816 206.182 47.5645 205.213 60.0441C204.911 63.9408 203.104 67.5455 200.483 70.4455L117.409 162.388C116.143 163.789 114.693 165.027 113.044 165.948C104.534 170.7 98.4945 171.003 88.6347 165.93C86.8705 165.022 85.3075 163.767 83.9452 162.324L41.0306 116.885Z" fill="#E1DCF9"/>
</g>
<g filter="url(#filter2_ii_1_10)">
<path d="M36 103C36.0365 107.923 36.5299 110.269 38.5 113.5C64.5 142 73.3597 151.574 88 165.5C98 171.5 106 170 114.5 165C107.994 172.782 103.485 177.266 95.5 183.5C84.2295 192.433 76.6057 195.182 62.8173 195.075C60.6231 195.058 58.4421 194.621 56.421 193.767C47.5805 190.029 42.4393 185.923 37.0333 177.867C34.9464 174.757 34.0567 171.015 34.1637 167.271L36 103Z" fill="url(#paint2_linear_1_10)"/>
</g>
</g>
<defs>
<filter id="filter0_i_1_10" x="0" y="0" width="240" height="241" filterUnits="userSpaceOnUse" color-interpolation-filters="sRGB">
<feFlood flood-opacity="0" result="BackgroundImageFix"/>
<feBlend mode="normal" in="SourceGraphic" in2="BackgroundImageFix" result="shape"/>
<feColorMatrix in="SourceAlpha" type="matrix" values="0 0 0 0 0 0 0 0 0 0 0 0 0 0 0 0 0 0 127 0" result="hardAlpha"/>
<feOffset dy="4"/>
<feGaussianBlur stdDeviation="2"/>
<feComposite in2="hardAlpha" operator="arithmetic" k2="-1" k3="1"/>
<feColorMatrix type="matrix" values="0 0 0 0 0 0 0 0 0 0 0 0 0 0 0 0 0 0 0.25 0"/>
<feBlend mode="normal" in2="shape" result="effect1_innerShadow_1_10"/>
</filter>
<filter id="filter1_d_1_10" x="31.999" y="37.2207" width="177.365" height="140.403" filterUnits="userSpaceOnUse" color-interpolation-filters="sRGB">
<feFlood flood-opacity="0" result="BackgroundImageFix"/>
<feColorMatrix in="SourceAlpha" type="matrix" values="0 0 0 0 0 0 0 0 0 0 0 0 0 0 0 0 0 0 127 0" result="hardAlpha"/>
<feOffset dy="4"/>
<feGaussianBlur stdDeviation="2"/>
<feComposite in2="hardAlpha" operator="out"/>
<feColorMatrix type="matrix" values="0 0 0 0 0 0 0 0 0 0 0 0 0 0 0 0 0 0 0.25 0"/>
<feBlend mode="normal" in2="BackgroundImageFix" result="effect1_dropShadow_1_10"/>
<feBlend mode="normal" in="SourceGraphic" in2="effect1_dropShadow_1_10" result="shape"/>
</filter>
<filter id="filter2_ii_1_10" x="34.1551" y="100" width="84.3449" height="99.0777" filterUnits="userSpaceOnUse" color-interpolation-filters="sRGB">
<feFlood flood-opacity="0" result="BackgroundImageFix"/>
<feBlend mode="normal" in="SourceGraphic" in2="BackgroundImageFix" result="shape"/>
<feColorMatrix in="SourceAlpha" type="matrix" values="0 0 0 0 0 0 0 0 0 0 0 0 0 0 0 0 0 0 127 0" result="hardAlpha"/>
<feOffset dy="4"/>
<feGaussianBlur stdDeviation="2"/>
<feComposite in2="hardAlpha" operator="arithmetic" k2="-1" k3="1"/>
<feColorMatrix type="matrix" values="0 0 0 0 0 0 0 0 0 0 0 0 0 0 0 0 0 0 0.25 0"/>
<feBlend mode="normal" in2="shape" result="effect1_innerShadow_1_10"/>
<feColorMatrix in="SourceAlpha" type="matrix" values="0 0 0 0 0 0 0 0 0 0 0 0 0 0 0 0 0 0 127 0" result="hardAlpha"/>
<feOffset dx="4" dy="-3"/>
<feGaussianBlur stdDeviation="2"/>
<feComposite in2="hardAlpha" operator="arithmetic" k2="-1" k3="1"/>
<feColorMatrix type="matrix" values="0 0 0 0 0 0 0 0 0 0 0 0 0 0 0 0 0 0 0.25 0"/>
<feBlend mode="normal" in2="effect1_innerShadow_1_10" result="effect2_innerShadow_1_10"/>
</filter>
<linearGradient id="paint0_linear_1_10" x1="-5.25266e-06" y1="237" x2="240" y2="-2.69126e-06" gradientUnits="userSpaceOnUse">
<stop stop-color="#A700B5"/>
<stop offset="0.463336" stop-color="#067CC0"/>
<stop offset="1" stop-color="#0082CC"/>
</linearGradient>
<radialGradient id="paint1_radial_1_10" cx="0" cy="0" r="1" gradientUnits="userSpaceOnUse" gradientTransform="translate(15 230) rotate(-44.6688) scale(305.829 309.7)">
<stop stop-color="#D52AE4"/>
<stop offset="0.463336" stop-color="#3297D0"/>
<stop offset="1" stop-color="#50B1E9"/>
</radialGradient>
<linearGradient id="paint2_linear_1_10" x1="100.5" y1="179.5" x2="34" y2="139.5" gradientUnits="userSpaceOnUse">
<stop stop-color="#5623AD"/>
<stop offset="1" stop-color="#501C93"/>
</linearGradient>
<clipPath id="clip0_1_10">
<rect width="240" height="237" fill="white"/>
</clipPath>
</defs>
</svg>
