<svg width="548" height="455" viewBox="0 0 548 455" fill="none" xmlns="http://www.w3.org/2000/svg">
<g clip-path="url(#clip0_35_1144)">
<path d="M273.001 343.926C268.717 344.408 264.433 344.891 260.189 345.369C260.128 356.195 253.303 363.228 245.786 369.324C240.27 373.797 233.987 371.759 228.684 367.94C202.902 349.374 177.252 330.625 151.464 312.067C140.118 303.902 138.729 295.11 147.351 284.175C149.438 281.528 151.242 278.657 153.309 275.699C142.161 270.007 135.317 261.502 133.924 248.852C132.698 237.716 138.96 224.855 149.615 219.949C153.705 218.065 158.06 216.758 162.668 215.649C162.394 216.768 161.822 217.529 161.086 218.066C156.718 221.256 151.87 223.934 148.008 227.642C138.576 236.696 138.162 252.63 147.01 262.382C150.942 266.716 155.648 270.348 160.074 274.364C153.387 284.816 151.995 290.094 156.109 298.409C161.036 308.368 169.771 314.477 180.063 318.139C189.758 321.588 198.533 326.073 204.597 334.857C206.843 338.111 209.532 341.156 212.45 343.823C216.827 347.825 221.124 348.033 225.3 343.958C229.612 339.751 233.196 334.797 237.28 329.954C226.477 322.352 216.26 315.267 206.182 307.992C203.879 306.329 202.052 304.005 200.339 301.985C201.114 301.988 201.557 301.993 202.16 302.295C208.179 305.884 213.938 309.374 219.924 312.418C227.809 316.429 234.389 311.785 237.432 306.677C241.719 299.479 245.152 291.772 249.136 283.983C251.645 280.218 253.968 276.752 256.573 273.108C261.727 268.698 266.261 263.971 271.548 260.342C280.577 254.146 291.264 252.729 302.317 251.574C306.536 251.672 310.307 251.619 314.472 251.658C315.943 251.766 317.019 251.781 318.334 252.028C319.434 252.288 320.295 252.316 321.46 252.44C322.187 252.578 322.61 252.621 323.225 253.028C323.917 256.603 324.415 259.814 324.589 262.848C323.523 262.294 322.821 261.726 322.036 261.568C302.29 257.594 283.826 260.329 268.612 274.212C262.498 279.792 257.446 286.999 253.398 294.291C243.004 313.012 247.07 332.748 268.753 340.521C270.368 341.1 271.594 342.766 273.001 343.926Z" fill="#D6D4EA"/>
<path d="M273.328 343.905C271.594 342.765 270.368 341.1 268.753 340.521C247.07 332.748 243.004 313.012 253.398 294.291C257.446 286.999 262.497 279.792 268.612 274.212C283.826 260.329 302.289 257.593 322.036 261.568C322.82 261.726 323.523 262.294 324.692 263.26C325.426 267.856 325.731 271.863 326.037 275.87C320.265 278.152 314.494 280.433 308.121 282.788C300.408 284.115 292.283 294.17 291.777 302.494C291.401 305.972 291.198 309.079 291.003 312.188C290.747 316.278 290.691 320.391 290.194 324.451C289.679 328.655 288.74 332.806 287.976 337.23C287.965 337.479 287.991 337.978 287.991 337.978C287.991 337.978 288 338.003 287.768 338.02C287.233 338.156 287.051 338.375 286.988 338.693C286.821 338.754 286.655 338.814 286.01 338.959C285.235 339.165 285.055 339.383 284.992 339.699C284.822 339.757 284.652 339.815 284.001 339.952C283.224 340.149 283.046 340.366 282.984 340.679C282.817 340.74 282.651 340.802 282.003 340.953C281.224 341.171 281.044 341.395 280.982 341.714C279.894 342.107 278.805 342.5 277.204 342.728C276.11 342.937 275.528 343.312 274.946 343.687C274.516 343.753 274.086 343.819 273.328 343.905Z" fill="#F4F5F8"/>
<path d="M200.006 301.986C202.052 304.005 203.879 306.329 206.182 307.992C216.26 315.267 226.476 322.352 237.28 329.954C233.196 334.797 229.612 339.751 225.3 343.958C221.124 348.033 216.827 347.825 212.45 343.824C209.532 341.156 206.843 338.111 204.597 334.857C198.533 326.073 189.758 321.588 180.063 318.139C169.771 314.477 161.036 308.368 156.109 298.409C151.995 290.094 153.387 284.816 160.074 274.364C155.647 270.348 150.942 266.716 147.01 262.382C138.162 252.63 138.576 236.696 148.007 227.642C151.87 223.934 156.718 221.256 161.086 218.066C161.822 217.529 162.394 216.768 163.048 215.761C164.688 215.407 166.323 215.402 168.337 215.779C165.374 225.154 165.641 233.818 170.647 242.007C163.383 242.023 160.256 243.786 159.163 248.236C158.102 252.557 162.337 257.289 170.719 260.995C169.853 262.582 168.92 264.12 168.152 265.735C165.413 271.495 166.861 279.394 171.703 283.041C179.522 288.93 187.517 294.589 195.52 300.229C196.798 301.129 198.504 301.421 200.007 301.998C200.001 302.001 200.006 301.986 200.006 301.986Z" fill="#ECEDF5"/>
<path d="M202 301.997C201.557 301.993 201.114 301.988 200.339 301.985C200.006 301.986 200.001 302.001 199.856 301.696C193.927 296.204 188.111 291.049 182.368 285.816C177.702 281.564 175.71 276.094 177.175 270.071C178.532 264.495 179.707 258.369 186.526 256C191.881 259.484 196.921 262.851 202.19 266.37C204.541 262.801 206.589 259.691 208.854 256.252C202.943 252.315 197.472 248.672 192.04 244.671C193.495 241.923 194.677 239.351 196.371 237.177C202.647 229.122 208.745 220.882 215.606 213.346C219.695 208.855 222.216 202.359 229.478 201.037C232.439 202.843 235.092 204.519 237.745 206.196C232.851 217.557 227.957 228.919 222.675 240.877C221.587 244.057 220.889 246.64 220.125 249.612C219.41 254.243 218.759 258.486 218.075 263.204C217.679 270.117 217.33 276.555 216.948 282.992C216.632 288.305 214.77 292.984 210.556 296.346C207.895 298.469 204.865 300.129 202 301.997Z" fill="#F3F4F8"/>
<path d="M287.987 336.98C288.741 332.806 289.679 328.655 290.194 324.451C290.691 320.391 290.748 316.278 291.003 312.188C291.198 309.08 291.401 305.972 292.136 302.415C298.29 299.643 303.725 296.558 309.564 295.154C321.916 292.182 334.209 294.177 346.219 297.697C348.436 298.347 350.312 300.157 352.241 301.758C350.403 305.755 348.669 309.426 347.062 312.83C345.067 312.921 343.57 312.99 342.072 313.058C341.635 312.945 341.198 312.832 340.319 312.534C339.622 312.16 339.341 312.103 339.033 312.175C327.983 310.039 319.67 315.538 311.491 321.789C305.066 326.698 298.343 331.22 291.166 336.059C290.286 336.39 290.092 336.649 289.996 336.982C289.996 336.982 290.001 337.001 289.66 336.991C288.875 336.98 288.431 336.98 287.987 336.98Z" fill="#E9E9ED"/>
<path d="M186.212 255.883C179.707 258.369 178.532 264.495 177.175 270.071C175.71 276.094 177.702 281.564 182.368 285.816C188.111 291.049 193.927 296.204 199.862 301.694C198.504 301.421 196.798 301.129 195.52 300.229C187.517 294.589 179.523 288.93 171.703 283.041C166.861 279.394 165.414 271.495 168.152 265.735C168.92 264.119 169.854 262.582 170.719 260.995C162.338 257.289 158.102 252.557 159.163 248.236C160.256 243.786 163.383 242.023 170.926 242.184C173.397 244.012 175.117 245.704 176.926 247.295C179.173 249.27 180.93 248.905 182.272 245.818C184.012 243.406 185.501 241.207 187.274 238.833C189.98 234.765 192.401 230.874 194.823 226.982C200.931 218.969 207.001 210.925 213.17 202.959C215.036 200.55 217.176 198.355 219.898 196.018C223.46 197.618 226.315 199.263 229.169 200.908C222.216 202.359 219.695 208.855 215.606 213.346C208.745 220.882 202.647 229.122 196.371 237.177C194.677 239.351 193.495 241.923 191.853 244.948C189.823 249.016 188.018 252.45 186.212 255.883Z" fill="#D6D4EA"/>
<path d="M352.345 301.432C350.312 300.157 348.435 298.347 346.219 297.697C334.209 294.177 321.915 292.182 309.564 295.154C303.725 296.558 298.29 299.643 292.313 302.046C292.283 294.17 300.408 284.115 307.802 282.953C311.394 283.389 314.698 283.909 318.017 284.041C330.944 284.552 343.576 286.474 355.907 292.05C354.902 295.619 353.624 298.526 352.345 301.432Z" fill="#CDCBE0"/>
<g clip-path="url(#clip1_35_1144)">
<path d="M449.97 173.837C427.978 175.67 408.33 184.615 388.185 194.129C386.637 194.202 385.73 194.142 384.949 193.749C398.279 183.652 413.411 178.242 429.425 173.881C432.183 173.509 434.556 173.208 437.223 172.887C438.012 172.577 438.506 172.286 439.402 171.937C447.534 170.938 455.265 169.998 463.211 169.252C464.285 169.302 465.144 169.157 466.402 169.013C467.868 169.009 468.934 169.005 470.263 169.221C472.018 169.307 473.511 169.172 475.432 169.04C477.573 169.028 479.287 169.014 481 169C481 169.75 481 170.5 480.532 171.608C471.594 171.984 463.122 171.912 454.656 172.103C453.082 172.138 451.532 173.232 449.97 173.837Z" fill="#A5B2CF"/>
<path d="M249.993 262.046C253.436 259.115 256.852 256.151 260.328 253.258C269.377 245.726 277.163 237.295 282.186 226.364C283.926 222.577 287.64 219.697 290.978 216.318C292.005 216.488 292.505 216.744 292.916 217.33C289.884 222.774 286.942 227.887 283.715 233.176C277.955 239.57 272.48 245.786 266.716 252.168C263.617 254.889 260.807 257.445 257.76 260.022C257.522 260.043 257.046 260.078 256.709 260.068C255.285 261.06 254.198 262.062 252.92 263.346C250.152 265.085 247.576 266.543 245 268C245 266.933 245 265.867 245.269 264.379C246.04 263.773 246.541 263.589 247.042 263.404C247.224 263.274 247.405 263.145 248.122 263.017C249.102 262.695 249.547 262.371 249.993 262.046Z" fill="#B2BCDD"/>
<path d="M481 168.667C479.287 169.014 477.573 169.028 475.171 168.812C472.988 168.721 471.494 168.861 470 169C468.934 169.005 467.867 169.009 466.19 168.808C464.717 168.754 463.856 168.906 462.995 169.058C455.265 169.998 447.534 170.938 439.211 171.767C438.056 172.073 437.492 172.49 436.929 172.907C434.556 173.208 432.183 173.509 429.408 173.497C428.985 172.416 428.964 171.646 428.943 170.877C430.016 170.586 431.09 170.294 432.752 170.064C433.901 169.805 434.46 169.484 435.019 169.163C438.329 168.387 441.64 167.611 444.975 166.417C446.067 166 447.133 166 448.818 166.314C450.971 166.713 452.505 166.799 454.447 166.937C456.217 166.936 457.581 166.883 459.342 166.89C460.803 166.904 461.868 166.857 463.318 166.859C465.136 166.605 466.568 166.303 468 166C468.75 166 469.5 166 470.857 166.279C472.665 166.647 473.866 166.735 475.49 166.872C477.608 166.947 479.304 166.973 481 167C481 167.444 481 167.889 481 168.667Z" fill="#D2D9F3"/>
<path d="M257.046 260.078C257.046 260.078 257.522 260.043 257.986 260.238C259.315 260.991 260.18 261.55 261.044 262.108C257.805 264.914 254.565 267.719 251.663 270.762C250 271 247.989 271.107 246.009 270.909C245.613 270.87 245.333 269.667 245 268.5C247.576 266.543 250.152 265.086 253.283 263.322C254.907 262.037 255.977 261.058 257.046 260.078Z" fill="#A8B5D1"/>
<path d="M450.434 173.923C451.532 173.232 453.082 172.138 454.656 172.103C463.122 171.912 471.594 171.984 480.532 171.983C481 172.444 481 172.889 481 173.667C470.966 174.003 460.931 174.006 450.434 173.923Z" fill="#8090B6"/>
<path d="M481 166.5C479.304 166.973 477.608 166.947 475.469 166.666C475.027 166.412 475 166 475 166C477 166 479 166 481 166.5Z" fill="#8188A8"/>
<path d="M458.945 166.829C457.581 166.883 456.218 166.936 454.428 166.716C454.003 166.443 454 166 454 166C455.389 166 456.778 166 458.575 166.208C458.983 166.415 458.945 166.829 458.945 166.829Z" fill="#676E8D"/>
<path d="M453.583 166C454 166 454.003 166.443 454.021 166.663C452.505 166.799 450.971 166.713 449.218 166.314C450.389 166 451.778 166 453.583 166Z" fill="#8188A8"/>
<path d="M467.583 166C466.568 166.303 465.136 166.605 463.339 166.657C462.975 166.407 463 166 463 166C464.389 166 465.778 166 467.583 166Z" fill="#989FBF"/>
<path d="M462.6 166C463 166 462.975 166.407 462.953 166.608C461.868 166.857 460.803 166.904 459.342 166.89C458.945 166.829 458.983 166.415 458.991 166.208C460.066 166 461.133 166 462.6 166Z" fill="#8188A8"/>
<path d="M474.6 166C475 166 475.027 166.412 475.047 166.618C473.866 166.735 472.665 166.647 471.232 166.279C472.067 166 473.133 166 474.6 166Z" fill="#989FBF"/>
<path d="M246.732 263.229C246.541 263.589 246.04 263.773 245.269 263.979C245 264 245 263.5 245 263.25C245.474 263.018 245.948 263.035 246.732 263.229Z" fill="#B1B9D6"/>
<path d="M384.823 194.081C385.73 194.141 386.637 194.202 387.816 194.138C392.555 196.381 397.035 198.724 401.472 201.144C402.19 201.536 402.72 202.273 403.847 203.243C404.888 203.766 405.417 203.898 405.947 204.03C405.947 204.03 406.003 204.009 406.163 204.284C406.899 204.699 407.475 204.841 408.05 204.982C408.324 205.171 408.598 205.36 408.996 206.037C409.31 206.822 409.58 206.99 409.932 207.028C409.932 207.028 409.992 207.007 410.072 207.266C410.353 207.813 410.628 207.975 410.977 208.011C411.268 208.171 411.558 208.331 412.025 208.967C412.475 209.625 412.749 209.807 413.023 209.988C413.023 209.988 413 210.002 413.005 210.276C413.273 211.04 413.535 211.53 413.796 212.019C417.436 217.017 416.864 222.125 413.644 227.642C412.333 227.976 411.576 227.957 410.935 227.571C415.363 218.02 411.894 212.599 404.883 208.107C398.652 204.115 391.661 201.31 384.752 197.727C382.214 197.314 378.981 196.118 377.815 197.183C373.442 201.181 369.89 206.018 369.222 212.265C368.728 216.882 372.298 222.104 376.603 223.099C377.211 223.686 377.625 224.145 377.963 224.908C377.86 225.42 377.832 225.628 377.715 225.929C377.787 226.057 377.947 226.092 378.333 226.095C378.559 226.063 379.011 225.997 379.292 226.034C379.76 226.098 379.947 226.126 380.127 226.501C383.413 228.92 386.706 230.991 389.856 233.357C389.476 234.708 389.237 235.763 388.998 236.817C380.74 235.171 375.459 228.931 369.536 223.829C367.978 222.486 367.318 219.592 367.077 217.322C366.345 210.433 366.634 203.668 371.926 198.229C372.187 197.96 372.012 197.267 372.35 196.406C373.574 195.74 374.487 195.44 375.401 195.141C364.803 190.534 354.23 187.189 342.538 187.215C341.501 187.193 340.808 187.206 339.724 187.153C332.874 188.074 326.415 189.063 319.879 189.718C318.861 188.917 317.921 188.451 316.98 187.984C318.046 187.656 319.112 187.328 320.871 187.1C325.132 186.73 328.701 186.26 332.655 185.692C337.158 185.409 341.275 185.125 345.395 185.066C348.947 185.015 352.503 185.221 356.057 185.313C361.111 186.759 366.145 188.281 371.227 189.62C373.863 190.314 376.583 190.685 379.695 191.433C381.691 192.469 383.257 193.275 384.823 194.081Z" fill="#CCD2E8"/>
<path d="M293.006 216.999C292.506 216.744 292.005 216.488 291.252 216.111C292.411 213.737 293.824 211.484 295.899 209.044C300.385 204.589 304.209 200.321 308.024 196.039C308.015 196.024 308.019 196.018 308.242 195.911C308.741 195.601 308.929 195.335 309.013 195.002C308.997 194.997 309.007 195.027 309.247 194.895C309.672 194.453 309.858 194.143 310.008 193.587C309.974 193.342 309.904 192.852 309.904 192.852C309.904 192.852 309.948 192.916 310.214 192.963C310.683 193.024 310.887 193.037 311.294 193.055C311.497 193.06 311.903 193.05 312.206 193.063C312.711 193.068 312.914 193.062 313.438 193.038C314.508 192.41 315.257 191.799 316.339 191.152C317.117 191.121 317.563 191.125 318.027 191.452C318.741 196.166 321.717 191.46 323.115 193.046C320.506 194.47 317.834 195.793 315.298 197.338C307.535 202.07 302.023 208.883 297.088 216.771C295.34 216.874 294.173 216.936 293.006 216.999Z" fill="#AAB5D2"/>
<path d="M342.883 187.251C354.23 187.189 364.803 190.534 375.401 195.141C374.488 195.44 373.574 195.74 372.309 196.026C366.076 194.573 360.231 192.941 354.294 191.788C351.906 191.324 349.314 191.91 346.458 191.69C346.826 190.872 347.552 190.382 348.221 189.931C346.407 189.021 344.645 188.136 342.883 187.251Z" fill="#A9B4CF"/>
<path d="M410.82 227.938C411.577 227.957 412.333 227.976 413.468 227.998C410.268 237.76 398.141 238.232 389.408 236.892C389.237 235.763 389.476 234.708 390.267 233.414C396.778 234.278 402.75 235.494 408.216 230.776C409.241 229.705 410.031 228.822 410.82 227.938Z" fill="#CAD3EA"/>
<path d="M267.004 252.002C272.48 245.786 277.955 239.57 283.766 233.469C284.424 234.067 284.748 234.549 285.072 235.031C279.763 241.74 276.23 249.92 268.16 254.68C267.41 253.709 267.207 252.856 267.004 252.002Z" fill="#A8B5D1"/>
<path d="M342.538 187.215C344.645 188.136 346.407 189.02 348.221 189.931C347.552 190.382 346.826 190.871 346.039 191.605C338.933 192.235 331.888 192.621 324.559 192.604C326.887 191.459 329.517 190.777 332.106 189.962C334.797 189.115 337.447 188.139 340.115 187.22C340.808 187.206 341.501 187.193 342.538 187.215Z" fill="#8F9DBA"/>
<path d="M285.398 234.899C284.748 234.549 284.424 234.067 284.05 233.292C286.942 227.887 289.884 222.774 292.916 217.33C294.173 216.936 295.34 216.874 296.787 216.944C293.286 222.974 289.505 228.871 285.398 234.899Z" fill="#A5B1CF"/>
<path d="M339.724 187.153C337.447 188.139 334.797 189.115 332.106 189.962C329.518 190.777 326.887 191.459 324.126 192.531C323.977 192.863 323.553 192.989 323.334 193.017C321.717 191.461 318.741 196.166 318.241 191.286C318.692 190.545 318.948 190.291 319.392 190.047C319.58 190.057 319.957 190.052 319.957 190.052C326.415 189.063 332.874 188.074 339.724 187.153Z" fill="#A9B4CF"/>
<path d="M266.716 252.168C267.207 252.856 267.41 253.709 267.846 254.801C265.94 257.307 263.801 259.575 261.353 261.976C260.18 261.55 259.315 260.991 258.224 260.217C260.808 257.445 263.618 254.889 266.716 252.168Z" fill="#B1B9D6"/>
<path d="M405.862 203.729C405.417 203.898 404.888 203.766 404.174 203.424C404.586 203.284 405.182 203.356 405.862 203.729Z" fill="#AFB2D0"/>
<path d="M413.869 211.702C413.535 211.53 413.273 211.04 413.012 210.265C413.323 210.448 413.632 210.916 413.869 211.702Z" fill="#AFB2D0"/>
<path d="M407.966 204.662C407.475 204.841 406.899 204.7 406.152 204.311C406.614 204.156 407.248 204.249 407.966 204.662Z" fill="#AFB2D0"/>
<path d="M412.964 209.728C412.749 209.807 412.475 209.625 412.103 209.213C412.304 209.143 412.604 209.305 412.964 209.728Z" fill="#AFB2D0"/>
<path d="M410.921 207.756C410.628 207.975 410.354 207.813 410.064 207.297C410.272 207.213 410.569 207.357 410.921 207.756Z" fill="#AFB2D0"/>
<path d="M409.889 206.774C409.581 206.99 409.31 206.822 409.051 206.288C409.271 206.209 409.559 206.365 409.889 206.774Z" fill="#AFB2D0"/>
<path d="M384.949 193.749C383.257 193.275 381.691 192.469 380.053 191.311C384.835 188.054 389.459 184.622 394.6 182.372C402.028 179.121 409.806 176.653 417.487 174C420.952 172.802 424.541 171.964 428.508 170.92C428.964 171.646 428.985 172.416 429.022 173.568C413.411 178.242 398.279 183.652 384.949 193.749Z" fill="#BDC4E1"/>
<path d="M308.033 196.053C304.209 200.321 300.385 204.589 296.223 208.914C295.312 204.57 299.096 202.832 301.331 200.181C302.708 198.548 304.362 197.147 306.289 195.478C307.135 195.56 307.584 195.807 308.033 196.053Z" fill="#C9D2EE"/>
<path d="M355.695 185.093C352.503 185.221 348.947 185.015 345.395 185.066C341.275 185.125 337.158 185.409 332.595 185.42C332.087 184.876 332.024 184.506 331.961 184.136C337.29 183.904 342.62 183.494 347.947 183.52C350.412 183.532 352.871 184.396 355.695 185.093Z" fill="#9CA1C3"/>
<path d="M319.879 189.718C319.956 190.052 319.58 190.057 319.028 190.043C317.652 190.416 316.829 190.802 316.006 191.187C315.257 191.799 314.508 192.41 313.304 192.908C312.534 192.88 312.218 192.965 311.903 193.05C311.903 193.05 311.497 193.06 311.164 192.867C310.652 192.428 310.442 192.213 310.2 192.028C312.211 190.686 314.222 189.345 316.607 187.994C317.921 188.451 318.861 188.917 319.879 189.718Z" fill="#BDC3E1"/>
<path d="M331.55 184.072C332.024 184.506 332.087 184.876 332.21 185.518C328.701 186.26 325.132 186.731 321.244 187.082C324.329 185.979 327.733 184.993 331.55 184.072Z" fill="#BDC3E1"/>
<path d="M308.024 196.039C307.584 195.807 307.135 195.56 306.465 195.185C307.243 194.366 308.242 193.676 309.572 192.919C309.904 192.852 309.973 193.342 309.807 193.763C309.429 194.465 309.218 194.746 309.007 195.027C309.007 195.027 308.997 194.997 308.809 195.133C308.362 195.472 308.161 195.721 308.019 196.018C308.019 196.018 308.015 196.024 308.024 196.039Z" fill="#BDC3E1"/>
<path d="M249.659 262.067C249.547 262.371 249.102 262.695 248.451 263.076C248.605 262.784 248.965 262.436 249.659 262.067Z" fill="#B1B9D6"/>
<path d="M434.7 169.085C434.46 169.484 433.901 169.805 433.115 170.033C433.386 169.629 433.883 169.318 434.7 169.085Z" fill="#BDC4E1"/>
<path d="M310.105 192.247C310.442 192.213 310.652 192.428 310.962 192.862C310.887 193.037 310.683 193.024 310.175 192.967C309.871 192.923 310.01 192.466 310.105 192.247Z" fill="#C9D2EE"/>
<path d="M470.263 169.221C471.494 168.861 472.989 168.721 474.743 168.809C473.511 169.172 472.018 169.307 470.263 169.221Z" fill="#BFC9E3"/>
<path d="M463.211 169.252C463.856 168.906 464.717 168.754 465.79 168.808C465.143 169.157 464.285 169.302 463.211 169.252Z" fill="#BFC9E3"/>
<path d="M437.223 172.887C437.492 172.49 438.056 172.073 438.81 171.826C438.506 172.286 438.012 172.577 437.223 172.887Z" fill="#BDC4E1"/>
<path d="M256.709 260.068C255.976 261.057 254.907 262.037 253.474 263.04C254.198 262.062 255.285 261.06 256.709 260.068Z" fill="#B1B9D6"/>
<path d="M406.838 228.644C409.494 222.9 412.622 216.964 406.133 211.816C402.789 209.163 398.934 207.086 395.124 205.105C391.458 203.2 387.551 201.754 383.58 199.791C383.941 198.977 384.474 198.479 385.006 197.982C391.662 201.31 398.653 204.115 404.883 208.107C411.894 212.599 415.363 218.02 410.935 227.571C410.03 228.821 409.241 229.705 408.076 230.487C407.413 229.804 407.126 229.224 406.838 228.644Z" fill="#A6B0C8"/>
<path d="M384.753 197.727C384.474 198.48 383.941 198.977 383.231 199.683C376.4 200.253 371.483 207.669 373.262 214.982C373.873 217.492 375.114 219.849 376.239 222.623C372.298 222.104 368.729 216.882 369.222 212.265C369.89 206.018 373.443 201.181 377.816 197.183C378.981 196.118 382.215 197.314 384.753 197.727Z" fill="#AAB6CD"/>
<path d="M406.463 228.738C407.126 229.224 407.414 229.804 407.841 230.673C402.75 235.494 396.778 234.278 390.41 233.118C386.706 230.991 383.414 228.92 380.128 226.501C381.15 226.418 382.282 226.476 383.161 226.978C390.53 231.189 398.127 232.148 406.463 228.738Z" fill="#A5ABC5"/>
<path d="M377.964 224.908C378.295 224.89 378.55 225.176 378.909 225.729C379.012 225.997 378.56 226.063 378.26 226.02C377.959 225.977 377.805 225.835 377.805 225.835C377.833 225.628 377.86 225.42 377.964 224.908Z" fill="#AAB6CD"/>
<path d="M378.033 226.052C377.947 226.092 377.787 226.057 377.716 225.929C377.805 225.835 377.959 225.977 378.033 226.052Z" fill="#AAB6CD"/>
<path d="M316.338 191.152C316.829 190.802 317.652 190.416 318.84 190.034C318.948 190.291 318.692 190.545 318.222 190.964C317.562 191.125 317.117 191.121 316.338 191.152Z" fill="#CCD2E8"/>
<path d="M312.206 193.063C312.218 192.965 312.534 192.88 312.982 192.925C312.913 193.062 312.711 193.068 312.206 193.063Z" fill="#C9D2EE"/>
<path d="M309.246 194.895C309.218 194.746 309.429 194.465 309.842 194.009C309.857 194.143 309.671 194.453 309.246 194.895Z" fill="#C9D2EE"/>
<path d="M308.242 195.911C308.162 195.721 308.362 195.472 308.825 195.138C308.929 195.335 308.741 195.601 308.242 195.911Z" fill="#C9D2EE"/>
</g>
<path d="M247.696 263.081C248.745 264.993 249.442 266.804 250.447 268.747C252.4 270.217 254.043 271.554 255.989 273.089C253.968 276.752 251.645 280.218 248.797 283.88C238.217 276.961 228.163 269.845 218.108 262.729C218.759 258.486 219.41 254.244 220.461 249.576C222.863 250.21 224.864 251.269 227.109 252.609C232.056 256.235 236.683 259.699 241.526 262.829C242.577 263.509 244.403 262.99 245.873 263.023C246.363 263.008 246.853 262.993 247.696 263.081ZM223.816 256.445C223.524 258.022 223.231 259.599 222.939 261.177C224.207 260.987 225.474 260.797 226.742 260.607C226.012 259.168 225.283 257.73 223.816 256.445Z" fill="#494D94"/>
<path d="M388.124 286.229C388.551 286.2 388.978 286.171 389.708 286.413C389.66 287.791 389.31 288.897 388.985 290.009C389.011 290.014 389.015 289.962 388.71 289.75C387.928 290.016 387.449 290.494 386.985 290.986C387 291 386.973 290.97 386.633 291.066C386.183 291.769 386.073 292.377 385.982 292.992C386.001 293 385.973 292.969 385.596 292.876C384.799 293.855 384.38 294.927 383.983 296.002C384.006 296.004 383.991 295.961 383.635 295.818C382.507 297.113 381.735 298.551 380.982 299.995C381.002 300.001 380.979 299.966 380.602 299.897C379.804 300.882 379.383 301.936 378.982 302.995C379.003 303.001 378.982 302.963 378.651 302.801C377.869 303.419 377.418 304.198 376.983 304.989C377 305.001 376.973 304.971 376.629 305.057C376.178 305.761 376.069 306.379 375.983 307C376.005 307.002 375.986 306.963 375.625 306.865C374.497 308.172 373.731 309.575 372.983 310.989C373.002 310.998 372.974 310.966 372.655 310.796C371.935 311.402 371.535 312.179 370.728 312.971C366.719 314.125 361.936 314.267 359.876 316.708C358.151 318.751 356.935 318.847 355.024 318.991C353.775 318.515 352.526 318.039 351.048 316.914C354.277 308.617 357.734 300.969 361.191 293.322C366.258 292.924 371.441 293.046 376.352 291.949C379.823 291.174 382.926 288.746 386.815 287.003C387.665 286.711 387.894 286.47 388.124 286.229Z" fill="#E2E4EF"/>
<path d="M328.031 252.029C333.196 250.973 336.889 247.939 340.058 243.119C341.435 240.924 342.27 239.085 343.105 237.246C343.159 237.039 343.213 236.832 343.558 236.282C344.093 235.761 344.175 235.526 344.096 235.234C344.096 235.234 344.084 235.079 344.38 235.006C344.942 234.724 345.067 234.451 345.053 234.114C345.053 234.114 345.028 234.039 345.38 234.039C346.8 234.036 347.868 234.033 348.657 234.257C344.812 238.412 345.185 242.691 347.185 247.564C347.337 251.795 347.664 255.582 347.711 259.373C347.727 260.681 347.454 262.706 346.614 263.191C341.937 265.889 341.375 270.051 341.835 274.742C339.143 275.096 336.451 275.451 333.083 275.572C331.811 274.083 330.876 272.879 330.676 271.563C329.687 265.068 328.894 258.543 328.031 252.029Z" fill="#E2E4EF"/>
<path d="M233.951 169.894C235.826 167.9 237.597 165.786 239.649 163.994C240.162 163.546 242.227 163.82 242.459 164.301C243.192 165.826 243.926 167.682 243.697 169.272C243.152 173.055 242.056 176.759 241.073 180.966C242.606 181.132 243.208 181.248 243.811 181.255C248.456 181.306 249.404 182.761 247.119 187.078C244.933 191.207 242.373 195.138 239.44 199.47C237.223 199.584 235.546 199.382 233.735 198.921C233.079 198.458 232.556 198.256 232.003 198.056C231.973 198.059 231.938 198.01 231.937 197.635C231.608 194.443 230.957 191.62 231.022 188.813C231.134 183.917 231.688 179.031 232.056 174.141C232.368 173.307 232.68 172.474 233.319 171.188C233.862 170.496 233.963 170.216 233.951 169.894Z" fill="#D6D4EA"/>
<path d="M245.816 262.595C244.403 262.99 242.577 263.509 241.526 262.829C236.683 259.699 232.056 256.235 227.558 252.522C233.935 249.427 236.393 244.015 238.005 237.997C238 238 237.994 238.009 238.341 237.964C239.808 236.816 240.927 235.714 242.353 234.805C244.814 237.35 249.453 237.45 249.084 242.089C247.975 248.782 246.867 255.475 245.816 262.595Z" fill="#D6D4EA"/>
<path d="M355.167 319.316C356.935 318.847 358.151 318.751 359.875 316.708C361.936 314.267 366.718 314.125 371.03 312.905C372.15 312.204 372.562 311.585 372.974 310.966C372.974 310.966 373.002 310.998 373.316 310.931C374.416 309.563 375.201 308.263 375.985 306.962C375.985 306.962 376.004 307.002 376.321 306.907C376.749 306.199 376.861 305.585 376.972 304.971C376.972 304.971 377 305.001 377.317 305.107C378.083 304.462 378.532 303.713 378.982 302.963C378.982 302.963 379.003 303.001 379.307 302.915C380.067 301.874 380.523 300.92 380.979 299.966C380.979 299.966 381.002 300.001 381.313 299.936C382.413 298.568 383.202 297.264 383.991 295.961C383.991 295.961 384.006 296.004 384.302 295.909C385.056 294.866 385.514 293.918 385.973 292.969C385.973 292.969 386.001 293 386.33 292.912C386.764 292.207 386.869 291.588 386.973 290.97C386.973 290.97 387 291 387.284 291.179C388.05 290.893 388.532 290.427 389.014 289.962C389.014 289.962 389.01 290.014 389.343 289.978C392.109 288.968 394.543 287.995 396.977 287.022C396.977 287.022 397.023 287.138 396.892 287.483C394.845 289.554 392.928 291.279 390.743 293.137C389.975 293.874 389.476 294.479 388.652 295.139C387.545 297.146 386.763 299.098 385.983 301.414C385.985 302.503 385.983 303.228 385.65 303.916C384.181 304.259 383.043 304.638 381.689 305.206C381.316 305.937 381.159 306.48 380.639 307.074C379.641 307.608 378.55 308.007 378.443 308.587C377.715 312.56 376.816 316.256 371.442 316.106C373.889 317.9 375.918 319.387 377.947 320.874C377.947 320.874 377.957 320.953 377.536 320.936C374.935 320.439 372.754 319.96 369.8 319.311C369.603 321.564 369.425 323.585 369.248 325.607C368.673 325.619 368.098 325.631 367.088 325.053C366.089 324.315 365.524 324.168 364.959 324.021C361.743 322.561 358.527 321.101 355.167 319.316Z" fill="#D6D4EA"/>
<path d="M381.904 305.017C383.043 304.638 384.181 304.259 386.037 303.931C387.829 303.035 389.089 302.226 389.926 301.101C390.826 299.889 391.329 298.382 392.365 296.995C393.644 296.724 394.563 296.461 395.482 296.198C395.438 295.928 395.394 295.658 395.349 295.388C394.24 295.233 393.131 295.079 391.909 294.678C391.535 293.955 391.273 293.48 391.012 293.005C392.928 291.279 394.844 289.554 396.837 287.513C400.482 289.494 399.328 292.728 397.918 295.324C394.064 302.423 389.909 309.298 382.951 314.087C380.944 315.468 380.036 318.445 378.286 320.782C375.918 319.387 373.889 317.9 371.442 316.106C376.816 316.256 377.715 312.559 378.443 308.587C378.55 308.007 379.641 307.608 380.846 307.307C382.339 307.583 383.263 307.675 385.546 307.904C383.572 306.339 382.738 305.678 381.904 305.017Z" fill="#B7BCD3"/>
<path d="M238.009 237.993C236.393 244.015 233.935 249.427 227.315 252.241C224.864 251.269 222.862 250.21 220.525 249.187C220.888 246.64 221.587 244.057 222.53 241.224C222.928 241.904 223.081 242.834 223.252 243.872C227.621 239.812 231.859 235.875 236.809 231.924C239.03 232.811 240.538 233.711 242.046 234.611C240.927 235.714 239.807 236.816 238.293 237.841C237.823 237.718 237.75 237.674 237.676 237.629C237.787 237.75 237.898 237.872 238.009 237.993Z" fill="#B7BCD3"/>
<path d="M194.466 226.916C192.401 230.874 189.98 234.765 187.119 238.535C181.437 233.269 176.195 228.125 170.949 222.602C171.608 219.866 172.27 217.509 172.932 215.151C174.169 215.541 175.406 215.931 176.823 217.049C177.028 218.073 177.052 218.37 176.739 218.611C175.714 218.629 175.026 218.704 173.711 218.847C177.769 220.98 181.351 222.464 184.454 224.633C186.554 226.101 188.311 226.935 190.685 225.805C191.827 226.153 192.968 226.502 194.466 226.916Z" fill="#1B2F61"/>
<path d="M253.751 230.344C253.042 232.48 252.333 234.617 251.125 236.623C246.723 233.626 242.82 230.759 238.918 227.892C242.738 220.711 246.559 213.529 250.77 206.51C251.772 207.112 252.382 207.55 252.996 207.995C253 208 253.011 208.008 253.002 208.387C251.509 210.491 249.268 211.998 248.695 213.986C247.412 218.435 246.959 223.125 245.891 229.318C248.44 226.64 250.075 224.922 251.273 223.663C252.034 225.716 252.893 228.03 253.751 230.344Z" fill="#B7BCD3"/>
<path d="M253.829 230.138C252.893 228.03 252.034 225.716 251.273 223.663C250.075 224.922 248.44 226.64 245.891 229.318C246.958 223.125 247.412 218.435 248.695 213.986C249.268 211.998 251.509 210.491 253.124 208.334C253.167 207.931 253.079 207.96 252.991 207.989C252.382 207.55 251.772 207.111 251.093 206.371C251.17 205.468 251.315 204.866 252.135 204.141C253.85 204.02 254.889 204.023 255.928 204.026C256.433 204.368 256.938 204.711 257.787 205.344C258.274 205.837 258.468 205.957 258.713 205.993C259.314 210.266 260.225 214.58 256.697 218.793C256.149 219.46 256.031 219.714 256.011 220.013C255.969 220.463 255.927 220.914 255.607 221.892C255.229 222.957 255.127 223.495 255.026 224.033C254.981 225.097 254.937 226.162 254.633 227.746C254.153 228.485 254.031 228.748 254.007 229.058C253.957 229.348 253.924 229.639 253.829 230.138ZM250.776 220.476C252.276 218.761 253.775 217.045 255.275 215.33C254.625 214.897 253.975 214.465 253.326 214.033C252.348 216.022 251.371 218.011 250.776 220.476Z" fill="#CDCBE0"/>
<path d="M172.602 214.998C172.27 217.509 171.608 219.866 170.876 223C168.46 232.333 173.517 242.371 182.019 246.032C180.93 248.905 179.173 249.27 176.926 247.295C175.117 245.704 173.396 244.012 171.358 242.187C165.641 233.818 165.373 225.154 168.747 215.809C169.942 215.253 171.107 215.049 172.602 214.998Z" fill="#494D94"/>
<path d="M360.863 293.108C357.733 300.969 354.276 308.617 350.834 316.647C347.997 315.93 345.143 314.832 342.181 313.396C343.569 312.99 345.067 312.921 347.062 312.83C348.669 309.426 350.403 305.755 352.241 301.758C353.624 298.526 354.902 295.619 356.145 292.331C357.585 292.264 359.061 292.579 360.863 293.108Z" fill="#494D94"/>
<path d="M231.716 174.222C231.688 179.031 231.134 183.917 231.022 188.813C230.957 191.62 231.608 194.443 231.593 197.598C228.465 195.916 225.681 193.896 222.896 191.877C224.244 187.793 225.339 183.598 227.045 179.67C227.928 177.638 229.896 176.077 231.716 174.222Z" fill="#B7BCD3"/>
<path d="M327.816 251.813C328.893 258.543 329.687 265.068 330.675 271.563C330.876 272.879 331.81 274.083 332.672 275.575C330.917 275.901 328.897 275.992 326.457 275.976C325.731 271.863 325.426 267.856 325.017 263.437C324.415 259.814 323.917 256.603 323.225 253.028C324.555 252.308 326.078 251.952 327.816 251.813Z" fill="#494D94"/>
<path d="M348.935 234.03C347.868 234.033 346.8 234.036 345.418 234.048C347.039 232.724 348.801 230.845 350.942 230.175C355.327 228.804 356.002 233.461 356.574 235.522C357.717 239.643 357.3 244.196 356.934 248.558C355.224 248.036 354.108 247.528 352.654 247.012C349.137 246.35 350.163 245.108 352.021 244.092C353.205 243.445 354.631 243.241 355.949 242.839C355.882 242.488 355.815 242.137 355.748 241.786C353.913 241.69 352.078 241.593 350.243 241.497C350.137 240.999 350.03 240.502 349.924 240.004C351.79 238.992 353.656 237.981 355.522 236.97C355.427 236.747 355.332 236.523 355.238 236.3C354.012 236.362 352.786 236.425 351.183 236.506C351.183 235.007 351.183 233.733 351.183 232.114C350.165 232.982 349.55 233.506 348.935 234.03Z" fill="#B7BCD3"/>
<path d="M356.642 252.971C356.728 258.297 357.162 263.653 356.701 268.93C356.549 270.664 354.077 272.195 352.291 273.406C353.599 269.812 351.903 267.063 350.801 264.17C350.803 264.1 350.926 264.037 351.305 264.028C352.769 263.721 353.854 263.424 356.154 262.793C353.905 261.65 352.939 261.158 350.858 260.1C352.798 259.289 353.939 258.813 354.033 258.774C352.712 256.665 351.901 255.371 351.452 254.057C353.423 253.681 355.033 253.326 356.642 252.971Z" fill="#B7BCD3"/>
<path d="M222.604 192.023C225.681 193.897 228.465 195.916 231.594 197.973C231.938 198.01 231.974 198.059 232.152 198.295C232.843 198.748 233.356 198.964 233.868 199.181C235.546 199.382 237.224 199.584 239.286 199.788C239.154 201.7 238.638 203.609 237.933 205.857C235.092 204.519 232.44 202.843 229.478 201.037C226.315 199.263 223.461 197.618 220.242 195.935C220.689 194.655 221.501 193.412 222.604 192.023Z" fill="#777B93"/>
<path d="M350.798 264.239C351.903 267.063 353.599 269.812 351.914 273.288C351.469 273.625 351.026 273.667 349.994 273.467C347.392 273.423 345.379 273.622 343.275 273.451C343.118 267.892 345.565 264.866 350.798 264.239Z" fill="#E2E4EF"/>
<path d="M350.8 264.17C345.565 264.866 343.118 267.892 343.182 273.691C343.147 274.468 343.114 274.636 343.081 274.804C342.87 274.856 342.659 274.907 342.142 274.85C341.374 270.051 341.936 265.889 346.614 263.191C347.454 262.706 347.727 260.681 347.711 259.373C347.664 255.582 347.337 251.795 347.463 247.512C348.259 250.602 348.601 254.206 349.206 257.766C349.567 259.892 350.338 261.949 350.926 264.037C350.926 264.037 350.803 264.1 350.8 264.17Z" fill="#777B93"/>
<path d="M238.609 228.031C242.82 230.759 246.723 233.626 250.819 236.781C250.594 238.65 250.174 240.23 249.419 241.95C249.453 237.45 244.813 237.35 242.353 234.805C240.538 233.711 239.03 232.811 237.172 231.884C237.315 230.628 237.808 229.399 238.609 228.031Z" fill="#777B93"/>
<path d="M190.424 225.64C188.311 226.935 186.554 226.101 184.454 224.633C181.351 222.464 177.77 220.98 173.711 218.847C175.026 218.704 175.714 218.629 177 218.772C179.026 219.376 180.454 219.761 181.881 220.146C184.642 221.923 187.402 223.699 190.424 225.64Z" fill="#B7BCD3"/>
<path d="M369.552 325.715C369.425 323.585 369.603 321.564 369.8 319.311C372.754 319.96 374.935 320.439 377.497 320.934C375.204 322.575 372.529 324.199 369.552 325.715Z" fill="#B7BCD3"/>
<path d="M356.729 252.573C355.032 253.326 353.423 253.681 351.427 253.667C351.691 251.204 352.341 249.112 352.991 247.02C354.108 247.528 355.224 248.036 356.559 248.728C356.79 249.999 356.803 251.087 356.729 252.573Z" fill="#CDCBE0"/>
<path d="M396.816 286.684C394.543 287.995 392.11 288.968 389.318 289.972C389.31 288.897 389.66 287.791 390.008 286.299C392.222 286.058 394.438 286.202 396.816 286.684Z" fill="#777B93"/>
<path d="M343.503 274.845C343.114 274.636 343.147 274.468 343.273 274.06C345.379 273.621 347.392 273.423 349.658 273.459C347.915 274.091 345.92 274.489 343.503 274.845Z" fill="#B7BCD3"/>
<path d="M342.789 237.278C342.27 239.085 341.435 240.924 340.273 242.867C340.002 242.28 340.06 241.588 340.202 240.55C341.016 239.239 341.744 238.275 342.789 237.278Z" fill="#B7BCD3"/>
<path d="M181.811 219.809C180.454 219.761 179.026 219.376 177.338 218.829C177.052 218.37 177.028 218.073 177.002 217.329C178.58 217.745 180.16 218.608 181.811 219.809Z" fill="#494D94"/>
<path d="M255.856 203.711C254.889 204.023 253.85 204.02 252.422 204.013C253.003 202.088 254.161 201.321 255.856 203.711Z" fill="#B7BCD3"/>
<path d="M275.253 343.78C275.528 343.312 276.11 342.937 276.846 342.774C276.52 343.282 276.04 343.577 275.253 343.78Z" fill="#D6D4EA"/>
<path d="M365.088 324.302C365.524 324.168 366.089 324.315 366.827 324.704C366.406 324.826 365.812 324.705 365.088 324.302Z" fill="#B7BCD3"/>
<path d="M287.977 337.23C288.431 336.98 288.875 336.98 289.652 336.986C289.53 337.31 289.076 337.628 288.306 337.961C287.991 337.978 287.966 337.479 287.977 337.23Z" fill="#D6D4EA"/>
<path d="M255.319 223.921C255.127 223.495 255.229 222.957 255.526 222.221C255.685 222.618 255.648 223.214 255.319 223.921Z" fill="#B7BCD3"/>
<path d="M233.715 170.002C233.964 170.216 233.862 170.496 233.461 170.869C233.344 170.705 233.411 170.407 233.715 170.002Z" fill="#B7BCD3"/>
<path d="M281.237 341.793C281.044 341.395 281.224 341.171 281.744 341.014C281.807 341.281 281.65 341.576 281.237 341.793Z" fill="#D6D4EA"/>
<path d="M283.231 340.76C283.046 340.366 283.224 340.149 283.736 340.005C283.795 340.268 283.636 340.555 283.231 340.76Z" fill="#D6D4EA"/>
<path d="M285.241 339.779C285.055 339.383 285.235 339.165 285.751 339.017C285.809 339.28 285.65 339.57 285.241 339.779Z" fill="#D6D4EA"/>
<path d="M287.236 338.772C287.051 338.375 287.234 338.156 287.756 338.014C287.812 338.278 287.648 338.564 287.236 338.772Z" fill="#D6D4EA"/>
<path d="M344.794 234.148C345.067 234.451 344.942 234.724 344.457 235.011C344.337 234.787 344.436 234.485 344.794 234.148Z" fill="#B7BCD3"/>
<path d="M290.256 336.938C290.092 336.649 290.286 336.39 290.807 336.111C290.863 336.31 290.689 336.602 290.256 336.938Z" fill="#D6D4EA"/>
<path d="M254.257 228.981C254.031 228.748 254.153 228.485 254.556 228.138C254.661 228.308 254.584 228.606 254.257 228.981Z" fill="#B7BCD3"/>
<path d="M343.843 235.21C344.175 235.526 344.092 235.761 343.655 235.977C343.504 235.738 343.547 235.461 343.843 235.21Z" fill="#B7BCD3"/>
<path d="M339.083 312.435C339.341 312.103 339.622 312.16 339.975 312.547C339.759 312.729 339.446 312.712 339.083 312.435Z" fill="#494D94"/>
<path d="M256.257 219.947C256.031 219.714 256.149 219.46 256.541 219.133C256.646 219.303 256.574 219.592 256.257 219.947Z" fill="#B7BCD3"/>
<path d="M387.849 286.138C387.894 286.47 387.665 286.711 387.178 286.938C387.138 286.632 387.357 286.34 387.849 286.138Z" fill="#777B93"/>
<path d="M258.755 205.764C258.468 205.957 258.274 205.837 258.071 205.471C258.355 205.098 258.617 205.174 258.755 205.764Z" fill="#B7BCD3"/>
<path d="M218.075 263.204C228.163 269.845 238.217 276.961 248.611 284.18C245.152 291.772 241.719 299.479 237.432 306.677C234.389 311.785 227.809 316.429 219.924 312.418C213.938 309.373 208.179 305.884 202.16 302.295C204.865 300.129 207.895 298.469 210.556 296.346C214.77 292.984 216.632 288.305 216.948 282.992C217.33 276.555 217.679 270.117 218.075 263.204Z" fill="#ECEDF5"/>
<path d="M186.526 256C188.017 252.45 189.823 249.016 191.815 245.306C197.472 248.672 202.943 252.315 208.854 256.252C206.589 259.691 204.541 262.801 202.19 266.37C196.921 262.851 191.881 259.484 186.526 256Z" fill="#494D94"/>
<path d="M182.272 245.818C173.517 242.371 168.46 232.333 170.879 223.379C176.194 228.125 181.437 233.269 186.834 238.711C185.5 241.207 184.012 243.406 182.272 245.818Z" fill="#131F42"/>
<path d="M224.184 256.368C225.283 257.73 226.012 259.168 226.741 260.607C225.474 260.797 224.206 260.987 222.938 261.177C223.231 259.599 223.523 258.022 224.184 256.368Z" fill="#B7BCD3"/>
<path d="M375.625 306.865C375.201 308.263 374.416 309.563 373.298 310.922C373.731 309.575 374.497 308.172 375.625 306.865Z" fill="#777B93"/>
<path d="M383.635 295.818C383.202 297.264 382.414 298.568 381.293 299.931C381.735 298.551 382.507 297.113 383.635 295.818Z" fill="#777B93"/>
<path d="M380.602 299.897C380.523 300.92 380.067 301.874 379.286 302.909C379.383 301.936 379.804 300.882 380.602 299.897Z" fill="#777B93"/>
<path d="M385.596 292.875C385.514 293.918 385.056 294.866 384.279 295.907C384.38 294.927 384.799 293.854 385.596 292.875Z" fill="#777B93"/>
<path d="M378.651 302.801C378.532 303.713 378.083 304.462 377.3 305.095C377.417 304.198 377.869 303.419 378.651 302.801Z" fill="#777B93"/>
<path d="M372.655 310.796C372.562 311.585 372.15 312.204 371.436 312.889C371.535 312.178 371.935 311.402 372.655 310.796Z" fill="#777B93"/>
<path d="M376.629 305.057C376.861 305.585 376.749 306.199 376.299 306.905C376.069 306.379 376.178 305.761 376.629 305.057Z" fill="#777B93"/>
<path d="M386.633 291.066C386.869 291.588 386.764 292.207 386.311 292.905C386.073 292.377 386.183 291.769 386.633 291.066Z" fill="#777B93"/>
<path d="M388.71 289.75C388.532 290.427 388.05 290.893 387.269 291.165C387.449 290.494 387.927 290.016 388.71 289.75Z" fill="#777B93"/>
<path d="M352.654 247.012C352.341 249.112 351.691 251.204 351.066 253.687C351.901 255.371 352.712 256.665 354.033 258.774C353.938 258.813 352.798 259.289 350.857 260.1C352.938 261.158 353.905 261.65 356.154 262.793C353.853 263.424 352.768 263.721 351.305 264.028C350.339 261.949 349.567 259.892 349.206 257.766C348.601 254.206 348.259 250.602 347.529 247.069C345.185 242.691 344.812 238.412 348.656 234.257C349.55 233.506 350.165 232.982 351.184 232.114C351.184 233.733 351.184 235.007 351.184 236.506C352.786 236.425 354.012 236.362 355.238 236.3C355.333 236.523 355.427 236.747 355.522 236.97C353.656 237.981 351.79 238.992 349.924 240.004C350.031 240.502 350.137 240.999 350.244 241.497C352.079 241.593 353.913 241.69 355.748 241.786C355.815 242.137 355.882 242.488 355.949 242.839C354.631 243.241 353.205 243.445 352.021 244.092C350.163 245.108 349.137 246.35 352.654 247.012Z" fill="#D6D4EA"/>
<path d="M233.735 198.921C233.356 198.964 232.843 198.748 232.182 198.292C232.556 198.256 233.079 198.458 233.735 198.921Z" fill="#B7BCD3"/>
<path d="M390.743 293.137C391.273 293.48 391.535 293.955 391.903 295.025C392.008 296.081 392.006 296.543 392.005 297.004C391.329 298.382 390.826 299.889 389.926 301.101C389.09 302.226 387.829 303.035 386.368 303.969C385.983 303.228 385.985 302.503 386.35 301.339C387.468 298.961 388.223 297.023 388.977 295.084C389.476 294.479 389.975 293.874 390.743 293.137Z" fill="#CDCBE0"/>
<path d="M388.652 295.139C388.223 297.023 387.468 298.961 386.347 300.975C386.763 299.098 387.545 297.146 388.652 295.139Z" fill="#B7BCD3"/>
<path d="M381.689 305.206C382.738 305.678 383.572 306.339 385.546 307.905C383.263 307.675 382.339 307.583 381.209 307.257C381.159 306.48 381.316 305.937 381.689 305.206Z" fill="#CDCBE0"/>
<path d="M370.448 314.555C370.486 314.616 370.411 314.494 370.448 314.555Z" fill="#B7BCD3"/>
<path d="M392.365 296.995C392.006 296.543 392.008 296.081 392.016 295.272C393.131 295.079 394.24 295.233 395.35 295.388C395.394 295.658 395.438 295.928 395.482 296.198C394.563 296.461 393.644 296.724 392.365 296.995Z" fill="#D6D4EA"/>
<path d="M238.004 237.997C237.898 237.872 237.787 237.75 237.676 237.629C237.75 237.674 237.823 237.718 237.945 237.886C237.993 238.009 238 238 238.004 237.997Z" fill="#D6D4EA"/>
<path d="M250.481 230.462C250.525 230.438 250.436 230.485 250.481 230.462Z" fill="#CDCBE0"/>
<path d="M250.585 220.238C251.371 218.011 252.348 216.022 253.326 214.033C253.976 214.465 254.625 214.897 255.275 215.33C253.776 217.045 252.276 218.761 250.585 220.238Z" fill="#B7BCD3"/>
<path d="M252.996 207.994C253.079 207.96 253.167 207.931 253.133 207.955C253.011 208.008 253 208 252.996 207.994Z" fill="#B7BCD3"/>
</g>
<defs>
<clipPath id="clip0_35_1144">
<rect width="548" height="455" fill="white"/>
</clipPath>
<clipPath id="clip1_35_1144">
<rect width="236" height="105" fill="white" transform="translate(244 165)"/>
</clipPath>
</defs>
</svg>
